<?xml version="1.0" encoding="UTF-8"?>
<svg id="Layer_1" data-name="Layer 1" xmlns="http://www.w3.org/2000/svg" xmlns:xlink="http://www.w3.org/1999/xlink" viewBox="0 0 579.96 202.53">
  <defs>
    <style>
      .cls-1 {
        fill: none;
      }

      .cls-2 {
        fill: #017ea7;
      }

      .cls-3 {
        fill: url(#linear-gradient);
      }
    </style>
    <linearGradient id="linear-gradient" x1="145.19" y1="14.69" x2="485.81" y2="14.69" gradientUnits="userSpaceOnUse">
      <stop offset="0" stop-color="#22a6df"/>
      <stop offset=".07" stop-color="#27a8df" stop-opacity=".97"/>
      <stop offset=".16" stop-color="#38afe2" stop-opacity=".9"/>
      <stop offset=".26" stop-color="#54bae6" stop-opacity=".77"/>
      <stop offset=".38" stop-color="#7ac9eb" stop-opacity=".6"/>
      <stop offset=".5" stop-color="#acddf3" stop-opacity=".37"/>
      <stop offset=".62" stop-color="#e8f5fb" stop-opacity=".1"/>
      <stop offset=".67" stop-color="#fff" stop-opacity="0"/>
    </linearGradient>
  </defs>
  <rect class="cls-1" x="-30.02" y="-418.64" width="640" height="640"/>
  <g>
    <path class="cls-2" d="M61.2,202.53c-12.02,0-22.63-2.15-31.82-6.46-9.2-4.3-16.4-10.46-21.59-18.47-5.2-8.01-7.79-17.66-7.79-28.93v-6.23h28.93v6.23c0,9.35,2.89,16.36,8.68,21.03,5.79,4.67,13.65,7.01,23.59,7.01s17.62-2,22.59-6.01c4.97-4.01,7.46-9.13,7.46-15.36,0-4.3-1.22-7.79-3.67-10.46-2.45-2.67-6.01-4.86-10.68-6.56-4.67-1.7-10.35-3.3-17.03-4.79l-5.12-1.11c-10.68-2.37-19.84-5.37-27.48-9.01-7.64-3.64-13.5-8.42-17.58-14.36-4.08-5.93-6.12-13.65-6.12-23.14s2.26-17.62,6.79-24.37c4.52-6.75,10.9-11.94,19.14-15.58,8.23-3.64,17.92-5.45,29.04-5.45s21.03,1.89,29.71,5.68c8.68,3.78,15.5,9.42,20.48,16.91,4.97,7.49,7.45,16.88,7.45,28.15v6.68h-28.93v-6.68c0-5.93-1.15-10.72-3.45-14.36-2.3-3.64-5.6-6.31-9.9-8.01-4.31-1.7-9.42-2.56-15.36-2.56-8.9,0-15.47,1.67-19.7,5.01-4.23,3.34-6.34,7.9-6.34,13.69,0,3.86,1,7.12,3,9.79s5.01,4.9,9.01,6.68c4.01,1.78,9.13,3.34,15.36,4.67l5.12,1.11c11.13,2.37,20.81,5.42,29.04,9.13,8.23,3.71,14.65,8.61,19.25,14.69,4.6,6.08,6.9,13.87,6.9,23.37s-2.41,17.84-7.23,25.04c-4.82,7.2-11.65,12.84-20.48,16.92-8.83,4.08-19.25,6.12-31.27,6.12Z"/>
    <path class="cls-2" d="M141.99,199.42V43.63h29.38v155.78h-29.38Z"/>
    <g>
      <path class="cls-2" d="M200.74,199.42V43.63h29.38v155.78h-29.38Z"/>
      <path class="cls-2" d="M318.69,202.53c-19.29,0-34.57-5.38-45.84-16.14-11.28-10.75-16.91-26.15-16.91-46.18v-37.39c0-20.03,5.64-35.42,16.91-46.18,11.27-10.75,26.56-16.14,45.84-16.14s33.94,5.23,44.4,15.69c10.46,10.46,15.69,24.81,15.69,43.06v1.34h-28.93v-2.23c0-9.2-2.56-16.76-7.68-22.7-5.12-5.93-12.95-8.9-23.48-8.9s-18.55,3.19-24.48,9.57c-5.94,6.38-8.9,15.06-8.9,26.04v38.28c0,10.83,2.97,19.47,8.9,25.92,5.93,6.46,14.09,9.68,24.48,9.68s18.36-3,23.48-9.01c5.12-6.01,7.68-13.54,7.68-22.59v-4.01h28.93v3.11c0,18.25-5.23,32.6-15.69,43.06-10.46,10.46-25.26,15.69-44.4,15.69Z"/>
      <path class="cls-2" d="M398.36,199.42v-25.81h20.48v-104.16h-20.48v-25.81h80.12c9.49,0,17.76,1.59,24.81,4.78,7.04,3.2,12.53,7.72,16.47,13.58,3.93,5.86,5.9,12.87,5.9,21.03v2.23c0,7.12-1.34,12.95-4.01,17.47-2.67,4.53-5.82,8.01-9.46,10.46-3.64,2.45-7.08,4.19-10.35,5.23v4.01c3.26.89,6.82,2.56,10.68,5.01,3.86,2.45,7.15,5.97,9.9,10.57,2.74,4.6,4.12,10.61,4.12,18.03v2.23c0,8.6-2,15.99-6.01,22.14-4.01,6.16-9.53,10.87-16.58,14.13-7.05,3.26-15.25,4.9-24.59,4.9h-81.01ZM448.21,107.73h27.15c6.08,0,11.09-1.56,15.02-4.67,3.93-3.12,5.9-7.42,5.9-12.91v-2.23c0-5.64-1.93-9.97-5.79-13.02-3.86-3.04-8.9-4.56-15.13-4.56h-27.15v37.39ZM448.21,172.71h27.59c6.38,0,11.53-1.56,15.47-4.68,3.93-3.11,5.9-7.57,5.9-13.35v-2.22c0-5.79-1.93-10.24-5.79-13.36-3.86-3.11-9.05-4.67-15.58-4.67h-27.59v38.28Z"/>
      <path class="cls-2" d="M550.58,199.42V43.63h29.37v155.78h-29.37Z"/>
    </g>
    <path class="cls-3" d="M141.99,0h230.11v29.38h-230.11V0Z"/>
  </g>
</svg>