<?xml version="1.0" encoding="UTF-8"?>
<svg id="Layer_1" data-name="Layer 1" xmlns="http://www.w3.org/2000/svg" xmlns:xlink="http://www.w3.org/1999/xlink" viewBox="0 0 710.89 402.32">
  <defs>
    <style>
      .cls-1 {
        fill: #103558;
      }

      .cls-2 {
        fill: #017ea7;
      }

      .cls-3 {
        fill: url(#linear-gradient);
      }
    </style>
    <linearGradient id="linear-gradient" x1="177.96" y1="18" x2="595.49" y2="18" gradientUnits="userSpaceOnUse">
      <stop offset="0" stop-color="#22a6df"/>
      <stop offset=".07" stop-color="#27a8df" stop-opacity=".97"/>
      <stop offset=".16" stop-color="#38afe2" stop-opacity=".9"/>
      <stop offset=".26" stop-color="#54bae6" stop-opacity=".77"/>
      <stop offset=".38" stop-color="#7ac9eb" stop-opacity=".6"/>
      <stop offset=".5" stop-color="#acddf3" stop-opacity=".37"/>
      <stop offset=".62" stop-color="#e8f5fb" stop-opacity=".1"/>
      <stop offset=".67" stop-color="#fff" stop-opacity="0"/>
    </linearGradient>
  </defs>
  <path class="cls-2" d="M75.02,248.26c-14.73,0-27.74-2.64-39.01-7.91-11.28-5.27-20.1-12.82-26.46-22.64-6.37-9.82-9.55-21.64-9.55-35.47v-7.64h35.46v7.64c0,11.46,3.55,20.05,10.64,25.78,7.09,5.73,16.73,8.59,28.92,8.59s21.59-2.45,27.69-7.36c6.09-4.91,9.14-11.19,9.14-18.82,0-5.27-1.5-9.55-4.5-12.82-3-3.27-7.36-5.95-13.09-8.04-5.73-2.09-12.69-4.05-20.87-5.87l-6.28-1.36c-13.09-2.91-24.32-6.59-33.69-11.05-9.37-4.46-16.55-10.32-21.55-17.6-5-7.27-7.5-16.73-7.5-28.37s2.77-21.59,8.32-29.87c5.54-8.27,13.37-14.64,23.46-19.1,10.09-4.46,21.96-6.68,35.6-6.68s25.78,2.32,36.42,6.96,19,11.55,25.1,20.73c6.09,9.19,9.14,20.69,9.14,34.51v8.18h-35.46v-8.18c0-7.27-1.41-13.14-4.23-17.6-2.82-4.46-6.87-7.73-12.14-9.82-5.28-2.09-11.55-3.14-18.82-3.14-10.91,0-18.96,2.05-24.14,6.14-5.18,4.09-7.77,9.68-7.77,16.78,0,4.73,1.23,8.73,3.68,12s6.14,6,11.05,8.18c4.91,2.18,11.19,4.09,18.82,5.73l6.27,1.36c13.64,2.91,25.51,6.64,35.6,11.19,10.09,4.55,17.96,10.55,23.6,18.01,5.64,7.46,8.46,17.01,8.46,28.64s-2.96,21.87-8.87,30.69c-5.91,8.82-14.28,15.73-25.1,20.73-10.82,5-23.6,7.5-38.33,7.5Z"/>
  <path class="cls-2" d="M174.04,244.44V53.48h36.01v190.96h-36.01Z"/>
  <g>
    <path class="cls-2" d="M246.06,244.44V53.48h36.01v190.96h-36.01Z"/>
    <path class="cls-2" d="M390.64,248.26c-23.64,0-42.38-6.59-56.2-19.78-13.82-13.18-20.73-32.06-20.73-56.61v-45.83c0-24.55,6.91-43.42,20.73-56.61,13.82-13.18,32.55-19.78,56.2-19.78s41.6,6.41,54.42,19.23c12.82,12.82,19.23,30.42,19.23,52.79v1.64h-35.46v-2.73c0-11.27-3.14-20.55-9.42-27.82-6.28-7.27-15.87-10.91-28.78-10.91s-22.73,3.91-30.01,11.73c-7.28,7.82-10.91,18.46-10.91,31.92v46.92c0,13.28,3.64,23.87,10.91,31.78,7.27,7.91,17.27,11.87,30.01,11.87s22.51-3.68,28.78-11.05c6.28-7.37,9.42-16.59,9.42-27.69v-4.91h35.46v3.82c0,22.37-6.41,39.97-19.23,52.79-12.82,12.82-30.96,19.23-54.42,19.23Z"/>
    <path class="cls-2" d="M488.29,244.44v-31.64h25.1v-127.67h-25.1v-31.64h98.21c11.63,0,21.77,1.95,30.42,5.86,8.63,3.92,15.36,9.46,20.19,16.64,4.81,7.19,7.23,15.78,7.23,25.78v2.73c0,8.73-1.64,15.87-4.91,21.41-3.27,5.55-7.14,9.82-11.59,12.82-4.46,3-8.68,5.14-12.68,6.41v4.91c4,1.09,8.36,3.13,13.09,6.14,4.73,3,8.77,7.32,12.14,12.96,3.36,5.64,5.05,13.01,5.05,22.1v2.73c0,10.55-2.46,19.6-7.37,27.14-4.91,7.55-11.69,13.33-20.32,17.32-8.64,4-18.69,6-30.14,6h-99.3ZM549.4,132.05h33.28c7.45,0,13.59-1.91,18.41-5.73,4.81-3.82,7.23-9.09,7.23-15.82v-2.73c0-6.91-2.36-12.23-7.09-15.96-4.73-3.72-10.91-5.59-18.55-5.59h-33.28v45.83ZM549.4,211.7h33.82c7.82,0,14.14-1.91,18.96-5.73,4.81-3.82,7.23-9.27,7.23-16.37v-2.73c0-7.1-2.36-12.55-7.09-16.37-4.73-3.82-11.09-5.73-19.1-5.73h-33.82v46.92Z"/>
    <path class="cls-2" d="M674.89,244.44V53.48h36.01v190.96h-36.01Z"/>
  </g>
  <g>
    <path class="cls-1" d="M0,374.75v-11.58c0-6.71,1.1-12.29,3.31-16.75,2.21-4.45,5.4-8.13,9.58-11.03,4.18-2.89,9.31-5.26,15.37-7.1l9.24-2.89c3.4-1.1,6.25-2.46,8.55-4.07,2.3-1.6,4.07-3.56,5.31-5.86,1.24-2.3,1.86-4.91,1.86-7.86v-.55c0-4.6-1.57-8.25-4.69-10.96-3.13-2.71-7.4-4.07-12.82-4.07s-9.63,1.45-12.89,4.34c-3.27,2.89-4.9,7.05-4.9,12.48v2.48H.27v-2.21c0-6.99,1.56-12.91,4.69-17.79,3.12-4.87,7.38-8.59,12.75-11.17,5.38-2.57,11.37-3.86,17.99-3.86s12.59,1.26,17.92,3.79c5.33,2.53,9.54,6.07,12.62,10.61,3.08,4.55,4.62,9.91,4.62,16.06v1.38c0,6.16-1.26,11.37-3.79,15.65-2.53,4.28-5.95,7.77-10.27,10.48-4.32,2.72-9.24,4.94-14.75,6.69l-8.82,2.76c-3.95,1.19-7.03,2.5-9.24,3.93-2.2,1.43-3.75,2.99-4.62,4.69s-1.31,3.74-1.31,6.13v.55h51.98v15.72H0Z"/>
    <path class="cls-1" d="M120.78,376.68c-11.4,0-20.54-3.15-27.44-9.44-6.89-6.29-10.34-15.83-10.34-28.61v-24.27c0-12.41,3.45-21.85,10.34-28.34,6.89-6.48,16.04-9.72,27.44-9.72s20.66,3.24,27.51,9.72c6.85,6.48,10.27,15.93,10.27,28.34v24.27c0,12.78-3.42,22.31-10.27,28.61-6.85,6.3-16.02,9.44-27.51,9.44ZM120.78,360.96c6.89,0,11.97-1.89,15.24-5.66,3.26-3.77,4.89-9.14,4.89-16.13v-25.65c0-7.08-1.82-12.43-5.45-16.06-3.63-3.63-8.53-5.45-14.68-5.45s-11.28,1.89-14.82,5.65c-3.54,3.77-5.31,9.05-5.31,15.85v25.65c0,7.26,1.68,12.71,5.03,16.34,3.35,3.64,8.39,5.45,15.1,5.45Z"/>
    <path class="cls-1" d="M171.24,374.75v-11.58c0-6.71,1.1-12.29,3.31-16.75,2.21-4.45,5.4-8.13,9.58-11.03,4.18-2.89,9.31-5.26,15.37-7.1l9.24-2.89c3.4-1.1,6.25-2.46,8.55-4.07,2.3-1.6,4.07-3.56,5.31-5.86,1.24-2.3,1.86-4.91,1.86-7.86v-.55c0-4.6-1.57-8.25-4.69-10.96-3.13-2.71-7.4-4.07-12.82-4.07s-9.63,1.45-12.89,4.34c-3.27,2.89-4.9,7.05-4.9,12.48v2.48h-17.65v-2.21c0-6.99,1.56-12.91,4.69-17.79,3.12-4.87,7.38-8.59,12.75-11.17,5.38-2.57,11.37-3.86,17.99-3.86s12.59,1.26,17.92,3.79c5.33,2.53,9.54,6.07,12.62,10.61,3.08,4.55,4.62,9.91,4.62,16.06v1.38c0,6.16-1.26,11.37-3.79,15.65-2.53,4.28-5.95,7.77-10.27,10.48-4.32,2.72-9.24,4.94-14.75,6.69l-8.82,2.76c-3.95,1.19-7.03,2.5-9.24,3.93-2.2,1.43-3.75,2.99-4.62,4.69s-1.31,3.74-1.31,6.13v.55h51.98v15.72h-70.04Z"/>
    <path class="cls-1" d="M290.37,376.68c-7.36,0-13.74-1.38-19.16-4.14-5.43-2.76-9.61-6.57-12.55-11.44-2.94-4.87-4.41-10.48-4.41-16.82v-32.95c0-7.81,1.59-14.32,4.76-19.51,3.17-5.19,7.54-9.07,13.1-11.65,5.56-2.57,11.93-3.86,19.1-3.86s13.4,1.2,18.68,3.59c5.28,2.39,9.37,5.84,12.27,10.34,2.9,4.51,4.34,9.88,4.34,16.13h-17.92c0-3.86-1.33-7.21-4-10.06-2.67-2.85-7.13-4.27-13.37-4.27s-10.92,1.61-14.27,4.82c-3.36,3.22-5.03,7.67-5.03,13.37v9.93h2.48c1.56-1.84,3.95-3.59,7.17-5.24,3.21-1.65,7.9-2.48,14.06-2.48,5.6,0,10.78,1.2,15.51,3.59,4.73,2.39,8.57,5.86,11.51,10.41,2.94,4.55,4.41,10.04,4.41,16.48v1.66c0,6.34-1.52,11.93-4.55,16.75-3.03,4.82-7.31,8.59-12.82,11.31-5.51,2.71-11.95,4.07-19.3,4.07ZM290.64,360.96c5.79,0,10.36-1.52,13.72-4.55,3.35-3.03,5.03-7.08,5.03-12.13v-1.1c0-3.4-.76-6.34-2.28-8.82-1.52-2.48-3.68-4.41-6.48-5.79-2.81-1.38-6.14-2.07-10-2.07s-7.08.69-9.93,2.07c-2.85,1.38-5.03,3.31-6.55,5.79-1.52,2.48-2.27,5.42-2.27,8.82v1.1c0,5.06,1.68,9.1,5.03,12.13,3.35,3.03,7.93,4.55,13.72,4.55Z"/>
    <path class="cls-1" d="M330.35,402.32l40.54-124.09h17.37l-40.54,124.09h-17.37Z"/>
    <path class="cls-1" d="M391.84,374.75v-11.58c0-6.71,1.1-12.29,3.31-16.75,2.21-4.45,5.4-8.13,9.58-11.03,4.18-2.89,9.31-5.26,15.37-7.1l9.24-2.89c3.4-1.1,6.25-2.46,8.55-4.07,2.3-1.6,4.07-3.56,5.31-5.86,1.24-2.3,1.86-4.91,1.86-7.86v-.55c0-4.6-1.56-8.25-4.69-10.96-3.12-2.71-7.4-4.07-12.82-4.07s-9.63,1.45-12.89,4.34c-3.26,2.89-4.89,7.05-4.89,12.48v2.48h-17.65v-2.21c0-6.99,1.56-12.91,4.69-17.79,3.12-4.87,7.38-8.59,12.75-11.17,5.38-2.57,11.38-3.86,17.99-3.86s12.59,1.26,17.92,3.79c5.33,2.53,9.54,6.07,12.62,10.61,3.08,4.55,4.62,9.91,4.62,16.06v1.38c0,6.16-1.26,11.37-3.79,15.65-2.53,4.28-5.95,7.77-10.27,10.48-4.32,2.72-9.24,4.94-14.75,6.69l-8.82,2.76c-3.95,1.19-7.04,2.5-9.24,3.93-2.21,1.43-3.75,2.99-4.62,4.69-.87,1.7-1.31,3.74-1.31,6.13v.55h51.98v15.72h-70.04Z"/>
    <path class="cls-1" d="M512.62,376.68c-11.4,0-20.54-3.15-27.44-9.44-6.89-6.29-10.34-15.83-10.34-28.61v-24.27c0-12.41,3.45-21.85,10.34-28.34,6.89-6.48,16.04-9.72,27.44-9.72s20.66,3.24,27.51,9.72c6.85,6.48,10.27,15.93,10.27,28.34v24.27c0,12.78-3.43,22.31-10.27,28.61-6.85,6.3-16.02,9.44-27.51,9.44ZM512.62,360.96c6.89,0,11.97-1.89,15.23-5.66,3.26-3.77,4.9-9.14,4.9-16.13v-25.65c0-7.08-1.81-12.43-5.45-16.06-3.63-3.63-8.53-5.45-14.68-5.45s-11.28,1.89-14.82,5.65c-3.54,3.77-5.31,9.05-5.31,15.85v25.65c0,7.26,1.68,12.71,5.03,16.34,3.35,3.64,8.39,5.45,15.1,5.45Z"/>
    <path class="cls-1" d="M563.09,374.75v-11.58c0-6.71,1.1-12.29,3.31-16.75,2.21-4.45,5.4-8.13,9.58-11.03,4.18-2.89,9.31-5.26,15.37-7.1l9.24-2.89c3.4-1.1,6.25-2.46,8.55-4.07,2.3-1.6,4.07-3.56,5.31-5.86,1.24-2.3,1.86-4.91,1.86-7.86v-.55c0-4.6-1.56-8.25-4.69-10.96-3.12-2.71-7.4-4.07-12.82-4.07s-9.63,1.45-12.89,4.34c-3.26,2.89-4.89,7.05-4.89,12.48v2.48h-17.65v-2.21c0-6.99,1.56-12.91,4.69-17.79,3.13-4.87,7.38-8.59,12.75-11.17,5.38-2.57,11.38-3.86,17.99-3.86s12.59,1.26,17.92,3.79c5.33,2.53,9.54,6.07,12.62,10.61,3.08,4.55,4.62,9.91,4.62,16.06v1.38c0,6.16-1.26,11.37-3.79,15.65-2.53,4.28-5.95,7.77-10.27,10.48-4.32,2.72-9.24,4.94-14.75,6.69l-8.82,2.76c-3.95,1.19-7.04,2.5-9.24,3.93-2.21,1.43-3.75,2.99-4.62,4.69-.88,1.7-1.31,3.74-1.31,6.13v.55h51.98v15.72h-70.04Z"/>
    <path class="cls-1" d="M655.88,374.75v-3.58c0-3.59.28-6.64.83-9.17.55-2.53,1.75-5.4,3.59-8.62l32.4-57.22v-2.21h-51.29v-15.72h69.49v20.96l-34.19,61.08c-1.2,2.12-2.02,4-2.48,5.66-.46,1.65-.69,3.68-.69,6.07v2.76h-17.65Z"/>
  </g>
  <path class="cls-3" d="M174.04,0h282.06v36.01H174.04V0Z"/>
</svg>