<?xml version="1.0" encoding="UTF-8"?>
<svg id="Layer_1" data-name="Layer 1" xmlns="http://www.w3.org/2000/svg" viewBox="0 0 380.7 517.2">
  <defs>
    <style>
      .cls-1 {
        fill: #cad3d5;
      }

      .cls-2 {
        fill: #96bde4;
      }

      .cls-2, .cls-3 {
        fill-rule: evenodd;
      }

      .cls-3 {
        fill: #3a5dab;
      }
    </style>
  </defs>
  <rect class="cls-1" width="380.7" height="517.2"/>
  <g>
    <path class="cls-2" d="M106.11,284.97c0,13.47,10.93,24.4,24.4,24.4h50.8c-1.53-14.19,6.57-29.41,24.29-32.5,8.11-1.42,14.56-7.57,16.39-15.6l.33-1.5c4.34-19.83,23.96-27.07,39.4-21.63v-54.26c0-13.49-10.93-24.4-24.4-24.4h-106.8c-13.47.02-24.38,10.93-24.4,24.4v101.09Z"/>
    <path class="cls-3" d="M237.94,204.46c0,10.82-8.77,19.59-19.58,19.59-10.82,0-19.59-8.77-19.59-19.58h0c0-10.82,8.77-19.59,19.59-19.59,10.81,0,19.58,8.77,19.58,19.58M181.31,309.37c-1.5-13.9,6.24-28.8,23.23-32.29l-3.29-5.29c-24.23-32.2-60.43-33.6-95.14-26.06v39.21c0,13.47,10.93,24.4,24.4,24.4h50.8ZM239.74,263.6c2.71-12.41,20.39-12.49,23.21-.1l.14.61.29,1.23c3.52,15.01,15.67,26.47,30.86,29.1,12.93,2.26,12.93,20.81,0,23.06-15.29,2.65-27.48,14.23-30.91,29.36l-.37,1.6c-2.83,12.39-20.49,12.31-23.21-.1l-.29-1.39c-3.34-15.17-15.5-26.81-30.8-29.49-12.91-2.24-12.91-20.77,0-23.01,15.24-2.67,27.38-14.25,30.76-29.34l.23-1.01.1-.51Z"/>
  </g>
</svg>