<?xml version="1.0" encoding="UTF-8"?>
<svg id="Layer_1" data-name="Layer 1" xmlns="http://www.w3.org/2000/svg" viewBox="0 0 380.7 517.2">
  <defs>
    <style>
      .cls-1 {
        fill: #bdbec1;
      }

      .cls-2 {
        fill: #0c76bc;
        stroke: #000;
        stroke-linecap: round;
        stroke-linejoin: round;
        stroke-width: 13.91px;
      }
    </style>
  </defs>
  <rect class="cls-1" width="380.7" height="517.2"/>
  <path class="cls-2" d="M106.88,267.18v-60.45c0-46.31,37.37-83.87,83.47-83.87s83.47,37.56,83.47,83.87v60.44c0,10.78-8.97,23.36-18.55,18.55-7.74-3.9-20.62-4.82-27.82,0-8.11,5.43-19.72,5.43-27.82,0-8.21-5.5-15.29-5.29-23.19,0-8.11,5.43-19.72,5.43-27.82,0-7.21-4.82-15.44-3.9-23.19,0-9.58,4.81-18.55-7.77-18.55-18.55M162.53,238.78h55.64M171.8,190.09h-9.27M218.17,190.09h-9.27"/>
</svg>